<svg width="28" height="25" viewBox="0 0 28 25" fill="none" xmlns="http://www.w3.org/2000/svg">
<path id="Vector" d="M0.995511 4.4798H26.8788C27.4286 4.4798 27.8743 4.03412 27.8743 3.48429V0.99551C27.8743 0.445677 27.4286 0 26.8788 0H0.995511C0.445678 0 0 0.445677 0 0.99551V3.48429C0 4.03412 0.445678 4.4798 0.995511 4.4798ZM0.995511 14.4349H26.8788C27.4286 14.4349 27.8743 13.9892 27.8743 13.4394V10.9506C27.8743 10.4008 27.4286 9.9551 26.8788 9.9551H0.995511C0.445678 9.9551 0 10.4008 0 10.9506V13.4394C0 13.9892 0.445678 14.4349 0.995511 14.4349ZM0.995511 24.39H26.8788C27.4286 24.39 27.8743 23.9443 27.8743 23.3945V20.9057C27.8743 20.3559 27.4286 19.9102 26.8788 19.9102H0.995511C0.445678 19.9102 0 20.3559 0 20.9057V23.3945C0 23.9443 0.445678 24.39 0.995511 24.39Z" fill="#6C6C6C"/>
</svg>
