<svg width="31" height="28" viewBox="0 0 31 28" fill="none" xmlns="http://www.w3.org/2000/svg">
<path id="Vector" d="M27.9305 15.9358L30.4306 4.93533C30.6111 4.14108 30.0074 3.38475 29.1929 3.38475H8.41999L7.93523 1.0149C7.81444 0.424204 7.29466 0 6.6917 0H1.26928C0.568268 0 0 0.568268 0 1.26928V2.11547C0 2.81648 0.568268 3.38475 1.26928 3.38475H4.96516L8.68035 21.5479C7.79153 22.059 7.19259 23.0175 7.19259 24.1163C7.19259 25.752 8.51857 27.078 10.1542 27.078C11.7899 27.078 13.1159 25.752 13.1159 24.1163C13.1159 23.2874 12.7749 22.5385 12.2261 22.0009H23.3137C22.7649 22.5385 22.424 23.2874 22.424 24.1163C22.424 25.752 23.7499 27.078 25.3856 27.078C27.0213 27.078 28.3473 25.752 28.3473 24.1163C28.3473 22.9437 27.6657 21.9304 26.6772 21.4506L26.9689 20.1667C27.1494 19.3725 26.5457 18.6161 25.7312 18.6161H11.5355L11.1893 16.9237H26.6928C27.2855 16.9237 27.7992 16.5137 27.9305 15.9358Z" fill="#6C6C6C"/>
</svg>
