<svg width="26" height="23" viewBox="0 0 26 23" fill="none" xmlns="http://www.w3.org/2000/svg">
<path id="Vector" d="M23.1797 1.63441C20.257 -0.823127 15.7414 -0.453991 12.9451 2.39291C10.1487 -0.453991 5.63312 -0.828184 2.71038 1.63441C-1.09223 4.83527 -0.536 10.0537 2.17437 12.8197L11.0437 21.856C11.5494 22.3718 12.227 22.66 12.9451 22.66C13.6682 22.66 14.3407 22.3768 14.8464 21.861L23.7157 12.8248C26.4211 10.0588 26.9874 4.84033 23.1797 1.63441ZM21.9864 11.1156L13.117 20.1519C12.9956 20.2733 12.8945 20.2733 12.7731 20.1519L3.90375 11.1156C2.05807 9.23457 1.68387 5.67468 4.27288 3.49526C6.23992 1.84173 9.27392 2.08951 11.1752 4.02621L12.9451 5.83144L14.7149 4.02621C16.6263 2.0794 19.6603 1.84173 21.6172 3.4902C24.2012 5.66962 23.8169 9.24974 21.9864 11.1156Z" fill="#6C6C6C"/>
</svg>
