<svg width="25" height="25" viewBox="0 0 25 25" fill="none" xmlns="http://www.w3.org/2000/svg">
<path id="Vector" d="M24.2909 21.2942L19.4953 16.4986C19.2788 16.2821 18.9854 16.1619 18.6775 16.1619H17.8935C19.2211 14.4639 20.0099 12.3282 20.0099 10.005C20.0099 4.47818 15.5317 0 10.005 0C4.47818 0 0 4.47818 0 10.005C0 15.5317 4.47818 20.0099 10.005 20.0099C12.3282 20.0099 14.4639 19.2211 16.1619 17.8935V18.6775C16.1619 18.9854 16.2821 19.2788 16.4986 19.4952L21.2942 24.2909C21.7464 24.743 22.4775 24.743 22.9248 24.2909L24.2861 22.9296C24.7382 22.4775 24.7382 21.7464 24.2909 21.2942ZM10.005 16.1619C6.60424 16.1619 3.84806 13.4105 3.84806 10.005C3.84806 6.60424 6.59943 3.84806 10.005 3.84806C13.4057 3.84806 16.1619 6.59943 16.1619 10.005C16.1619 13.4057 13.4105 16.1619 10.005 16.1619Z" fill="#6C6C6C"/>
</svg>
